<svg width="420" height="180" viewBox="0 0 420 180" fill="none" xmlns="http://www.w3.org/2000/svg"><rect width="420" height="180" rx="24" fill="#050506"/><path d="M54 122L88 48H126L103 122H80L94 76L72 122H54Z" fill="#F7F7F7"/><path d="M133 48H204L197 72H153L148 87H188L181 110H141L137 122H112L133 48Z" fill="#F7F7F7"/><path d="M222 48H292L285 72H241L232 101H278L271 122H200L222 48Z" fill="#F7F7F7"/><path d="M305 48H336L345 76L371 48H402L363 86L382 122H351L341 99L318 122H287L327 83L305 48Z" fill="#E10600"/><path d="M51 141H369" stroke="#E10600" stroke-width="8" stroke-linecap="round"/></svg>